# xmcd CD database file
#
# Track frame offsets:
#	150
#	17122
#	42565
#	62025
#	80850
#	99452
#	126152
#	157425
#
# Disc length: 2379 seconds
#
# Revision: 2
# Processed by: cddbd v1.4b41PL1 Copyright (c) Steve Scherf et al.
# Submitted via: Feurio! 1.60 - http://www.feurio.com
#
DISCID=5e094908,72094908
DTITLE=Cover Girls - Show Me
DYEAR=1900
DGENRE=
TTITLE0=Show Me
TTITLE1=Because Of You
TTITLE2=That Boy Of Mine
TTITLE3=One Night Affair
TTITLE4=Spring Love
TTITLE5=Inside Outside
TTITLE6=Promise Me
TTITLE7=Love Emergency
EXTD=
EXTT0=
EXTT1=
EXTT2=
EXTT3=
EXTT4=
EXTT5=
EXTT6=
EXTT7=
PLAYORDER=
